<svg width="166" height="117" viewBox="0 0 166 117" fill="none" xmlns="http://www.w3.org/2000/svg">
<path d="M0 94.9273C0 94.0989 0.671573 93.4273 1.5 93.4273H14.7237C15.5521 93.4273 16.2237 94.0989 16.2237 94.9273V96.6988C16.2237 97.5272 15.5521 98.1988 14.7237 98.1988H6.81217C5.98374 98.1988 5.31217 98.8704 5.31217 99.6988V101.898C5.31217 102.726 5.98374 103.398 6.81217 103.398H13.0008C13.8292 103.398 14.5008 104.069 14.5008 104.898V105.743C14.5008 106.572 13.8292 107.243 13.0008 107.243H6.81217C5.98374 107.243 5.31217 107.915 5.31217 108.743V115.073C5.31217 115.901 4.6406 116.573 3.81217 116.573H1.5C0.671574 116.573 0 115.901 0 115.073V94.9273Z" fill="#0F9162"/>
<path d="M17.6459 107.03V94.9273C17.6459 94.0989 18.3175 93.4273 19.1459 93.4273H21.4581C22.2865 93.4273 22.9581 94.0989 22.9581 94.9273V106.887C22.9581 109.772 24.7886 111.872 27.337 111.872C29.8854 111.872 31.716 109.772 31.716 106.887V94.9273C31.716 94.0989 32.3876 93.4273 33.216 93.4273H35.5282C36.3566 93.4273 37.0282 94.0989 37.0282 94.9273V107.03C37.0282 112.798 32.9722 117 27.337 117C21.7018 117 17.6459 112.798 17.6459 107.03Z" fill="#0F9162"/>
<path d="M41.3904 116.573C40.5619 116.573 39.8903 115.901 39.8903 115.073V94.9273C39.8903 94.0989 40.5619 93.4273 41.3903 93.4273H45.0267C45.5773 93.4273 46.0837 93.729 46.3458 94.2132L51.4284 103.602C52.1695 104.971 54.2476 104.445 54.2476 102.888V94.9273C54.2476 94.0989 54.9191 93.4273 55.7476 93.4273H58.0597C58.8882 93.4273 59.5597 94.0989 59.5597 94.9273V115.073C59.5597 115.901 58.8882 116.573 58.0597 116.573H54.7039C54.1568 116.573 53.6531 116.275 53.3895 115.795L48.0169 106.024C47.2695 104.664 45.2025 105.195 45.2025 106.747V115.073C45.2025 115.901 44.5309 116.573 43.7025 116.573H41.3904Z" fill="#0F9162"/>
<path d="M64.0871 116.573C63.2587 116.573 62.5871 115.901 62.5871 115.073V94.9273C62.5871 94.0989 63.2587 93.4273 64.0871 93.4273H71.4886C78.2723 93.4273 83.1179 98.2344 83.1179 105C83.1179 111.694 78.38 116.573 71.9193 116.573H64.0871ZM67.8993 110.23C67.8993 111.058 68.5708 111.73 69.3993 111.73H71.6321C75.042 111.73 77.5186 108.881 77.5186 104.964C77.5186 101.012 74.9343 98.1988 71.345 98.1988H69.3993C68.5708 98.1988 67.8993 98.8704 67.8993 99.6988V110.23Z" fill="#0F9162"/>
<path d="M93.2516 116.573C92.4232 116.573 91.7516 115.901 91.7516 115.073V94.9273C91.7516 94.0989 92.4232 93.4273 93.2516 93.4273H103.381C107.616 93.4273 110.703 96.454 110.703 100.62C110.703 103.039 109.577 105.061 107.723 106.331C106.998 106.826 106.631 107.771 107.031 108.553L110.017 114.39C110.528 115.388 109.803 116.573 108.682 116.573H105.869C105.237 116.573 104.673 116.177 104.459 115.583L101.98 108.732C101.765 108.138 101.201 107.742 100.57 107.742H98.5638C97.7353 107.742 97.0638 108.413 97.0638 109.242V115.073C97.0638 115.901 96.3922 116.573 95.5638 116.573H93.2516ZM97.0638 102.539C97.0638 103.367 97.7353 104.039 98.5638 104.039H102.304C103.919 104.039 105.104 102.828 105.104 101.119C105.104 99.4095 103.919 98.1988 102.304 98.1988H98.5638C97.7353 98.1988 97.0638 98.8704 97.0638 99.6988V102.539Z" fill="#0F9162"/>
<path d="M113.011 94.9273C113.011 94.0989 113.683 93.4273 114.511 93.4273H116.823C117.652 93.4273 118.323 94.0989 118.323 94.9273V115.073C118.323 115.901 117.652 116.573 116.823 116.573H114.511C113.683 116.573 113.011 115.901 113.011 115.073V94.9273Z" fill="#0F9162"/>
<path d="M122.837 116.573C122.008 116.573 121.337 115.901 121.337 115.073V94.9273C121.337 94.0989 122.008 93.4273 122.837 93.4273H126.473C127.024 93.4273 127.53 93.729 127.792 94.2132L132.875 103.602C133.616 104.971 135.694 104.445 135.694 102.888V94.9273C135.694 94.0989 136.365 93.4273 137.194 93.4273H139.506C140.335 93.4273 141.006 94.0989 141.006 94.9273V115.073C141.006 115.901 140.335 116.573 139.506 116.573H136.15C135.603 116.573 135.099 116.275 134.836 115.795L129.463 106.024C128.716 104.664 126.649 105.195 126.649 106.747V115.073C126.649 115.901 125.977 116.573 125.149 116.573H122.837Z" fill="#0F9162"/>
<path d="M153.94 117C147.695 117 143.172 111.979 143.172 105.036C143.172 98.0564 147.946 93 154.514 93C158.826 93 162.825 95.3685 164.59 98.8008C164.956 99.5135 164.548 100.342 163.797 100.623L161.17 101.604C160.337 101.916 159.428 101.421 158.982 100.651C158.023 98.9948 156.348 97.9139 154.586 97.9139C151.212 97.9139 148.771 100.869 148.771 104.929C148.771 109.024 151.284 112.015 154.73 112.015C156.876 112.015 158.644 110.847 159.423 109.048C159.774 108.237 159.063 107.457 158.179 107.457H153.645C152.817 107.457 152.145 106.785 152.145 105.957V105.254C152.145 104.425 152.817 103.754 153.645 103.754H163.48C164.256 103.754 164.905 104.346 164.974 105.12L165.854 114.939C165.932 115.817 165.241 116.573 164.36 116.573H163.66C163.177 116.573 162.755 116.248 162.63 115.782C162.349 114.733 160.328 114.519 159.482 115.2C158.079 116.33 156.146 117 153.94 117Z" fill="#0F9162"/>
<path d="M62.1545 41C49.0591 41 43 28.5817 34.9864 28.5817C30.4909 28.5817 27.3636 32.7211 27.3636 38.2404C27.3636 38.8936 26.8341 39.4231 26.1809 39.4231H1.5C0.671572 39.4231 0 38.7515 0 37.9231V32.3269C0 13.601 9.96818 0 23.8455 0C36.9409 0 43 12.4183 51.0136 12.4183C55.5091 12.4183 58.6364 8.27884 58.6364 2.75961C58.6364 2.10643 59.1659 1.57692 59.8191 1.57692H84.5C85.3284 1.57692 86 2.24849 86 3.07692V8.67307C86 27.399 76.0318 41 62.1545 41Z" fill="#0F9162"/>
<path d="M62.1545 86C49.0591 86 43 73.5817 34.9864 73.5817C30.4909 73.5817 27.3636 77.7211 27.3636 83.2404C27.3636 83.8936 26.8341 84.4231 26.1809 84.4231H1.5C0.671572 84.4231 0 83.7515 0 82.9231V77.3269C0 58.601 9.96818 45 23.8455 45C36.9409 45 43 57.4183 51.0136 57.4183C55.5091 57.4183 58.6364 53.2788 58.6364 47.7596C58.6364 47.1064 59.1659 46.5769 59.8191 46.5769H84.5C85.3284 46.5769 86 47.2485 86 48.0769V53.6731C86 72.399 76.0318 86 62.1545 86Z" fill="#0F9162"/>
<path d="M125 62.1545C125 49.0591 137.418 43 137.418 34.9864C137.418 30.4909 133.279 27.3636 127.76 27.3636C127.106 27.3636 126.577 26.8341 126.577 26.1809L126.577 1.5C126.577 0.671571 127.249 -1.69388e-06 128.077 -1.65767e-06L133.673 -1.41305e-06C152.399 -5.94517e-07 166 9.96818 166 23.8455C166 36.9409 153.582 43 153.582 51.0136C153.582 55.5091 157.721 58.6364 163.24 58.6364C163.894 58.6364 164.423 59.1659 164.423 59.8191L164.423 84.5C164.423 85.3284 163.752 86 162.923 86L157.327 86C138.601 86 125 76.0318 125 62.1545Z" fill="#0F9162"/>
<path fill-rule="evenodd" clip-rule="evenodd" d="M97.5 86C96.6716 86 96 85.3284 96 84.5V1.5C96 0.671573 96.6716 0 97.5 0H119.5C120.328 0 121 0.671574 121 1.5V84.5C121 85.3284 120.328 86 119.5 86H97.5Z" fill="#0F9162"/>
</svg>
