<svg width="19" height="10" viewBox="0 0 19 10" fill="none" xmlns="http://www.w3.org/2000/svg">
<path d="M7.22727 5C5.70455 5 5 3.48558 4.06818 3.48558C3.54545 3.48558 3.18182 3.99038 3.18182 4.66346C3.18182 4.74312 3.11724 4.80769 3.03759 4.80769H0.5C0.223858 4.80769 0 4.58383 0 4.30769V3.94231C0 1.65865 1.15909 0 2.77273 0C4.29545 0 5 1.51442 5.93182 1.51442C6.45455 1.51442 6.81818 1.00961 6.81818 0.336538C6.81818 0.256882 6.88276 0.192307 6.96241 0.192307H9.5C9.77614 0.192307 10 0.416165 10 0.692307V1.05769C10 3.34135 8.84091 5 7.22727 5Z" fill="#0F9162"/>
<path d="M7.22727 10C5.70455 10 5 8.48558 4.06818 8.48558C3.54545 8.48558 3.18182 8.99038 3.18182 9.66346C3.18182 9.74312 3.11724 9.80769 3.03759 9.80769H0.5C0.223858 9.80769 0 9.58383 0 9.30769V8.94231C0 6.65865 1.15909 5 2.77273 5C4.29545 5 5 6.51442 5.93182 6.51442C6.45455 6.51442 6.81818 6.00961 6.81818 5.33654C6.81818 5.25688 6.88276 5.19231 6.96241 5.19231H9.5C9.77614 5.19231 10 5.41617 10 5.69231V6.05769C10 8.34135 8.84091 10 7.22727 10Z" fill="#0F9162"/>
<path d="M15 7.22727C15 5.70455 16.2115 5 16.2115 4.06818C16.2115 3.54545 15.8077 3.18182 15.2692 3.18182C15.2055 3.18182 15.1538 3.13016 15.1538 3.06643L15.1538 0.5C15.1538 0.223858 15.3777 -1.58336e-07 15.6538 -1.46265e-07L15.8462 -1.37859e-07C17.6731 -5.80016e-08 19 1.15909 19 2.77273C19 4.29545 17.7885 5 17.7885 5.93182C17.7885 6.45455 18.1923 6.81818 18.7308 6.81818C18.7945 6.81818 18.8462 6.86984 18.8462 6.93357L18.8462 9.5C18.8462 9.77614 18.6223 10 18.3462 10L18.1538 10C16.3269 10 15 8.84091 15 7.22727Z" fill="#0F9162"/>
<path fill-rule="evenodd" clip-rule="evenodd" d="M11.5 10C11.2239 10 11 9.77614 11 9.5V0.5C11 0.223858 11.2239 0 11.5 0H13.5C13.7761 0 14 0.223858 14 0.5V9.5C14 9.77614 13.7761 10 13.5 10H11.5Z" fill="#0F9162"/>
</svg>
