<?xml version="1.0" standalone="no"?>
<!DOCTYPE svg PUBLIC "-//W3C//DTD SVG 20010904//EN"
 "http://www.w3.org/TR/2001/REC-SVG-20010904/DTD/svg10.dtd">
<svg version="1.0" xmlns="http://www.w3.org/2000/svg"
 width="700.000000pt" height="700.000000pt" viewBox="0 0 700.000000 700.000000"
 preserveAspectRatio="xMidYMid meet">
<metadata>
Created by potrace 1.14, written by Peter Selinger 2001-2017
</metadata>
<g transform="translate(0.000000,700.000000) scale(0.100000,-0.100000)"
fill="#000000" stroke="none">
<path d="M107 6986 c-46 -17 -64 -31 -85 -70 -16 -29 -17 -262 -17 -3416 l0
-3385 20 -35 c12 -19 36 -43 55 -55 l35 -20 3385 0 3385 0 35 20 c19 12 43 36
55 55 l20 35 0 3385 0 3385 -20 35 c-12 19 -36 43 -55 55 -35 20 -35 20 -3405
22 -2802 2 -3376 0 -3408 -11z"/>
</g>
</svg>
